<mxfile host="Electron" agent="Mozilla/5.0 (Macintosh; Intel Mac OS X 10_15_7) AppleWebKit/537.36 (KHTML, like Gecko) draw.io/24.7.17 Chrome/128.0.6613.36 Electron/32.0.1 Safari/537.36" version="24.7.17">
  <diagram id="C5RBs43oDa-KdzZeNtuy" name="Page-1">
    <mxGraphModel dx="2147" dy="1862" grid="1" gridSize="10" guides="1" tooltips="1" connect="1" arrows="1" fold="1" page="1" pageScale="1" pageWidth="827" pageHeight="1169" math="0" shadow="0">
      <root>
        <mxCell id="WIyWlLk6GJQsqaUBKTNV-0" />
        <mxCell id="WIyWlLk6GJQsqaUBKTNV-1" parent="WIyWlLk6GJQsqaUBKTNV-0" />
        <mxCell id="OPoXYdPVsy5MxGp2nYEl-60" value="" style="rounded=0;whiteSpace=wrap;html=1;" vertex="1" parent="WIyWlLk6GJQsqaUBKTNV-1">
          <mxGeometry y="210" width="1460" height="730" as="geometry" />
        </mxCell>
        <mxCell id="OPoXYdPVsy5MxGp2nYEl-24" value="" style="edgeStyle=orthogonalEdgeStyle;rounded=0;orthogonalLoop=1;jettySize=auto;html=1;" edge="1" parent="WIyWlLk6GJQsqaUBKTNV-1" source="OPoXYdPVsy5MxGp2nYEl-0" target="OPoXYdPVsy5MxGp2nYEl-10">
          <mxGeometry relative="1" as="geometry" />
        </mxCell>
        <mxCell id="OPoXYdPVsy5MxGp2nYEl-0" value="FastAPI Endpoint" style="swimlane;whiteSpace=wrap;html=1;" vertex="1" parent="WIyWlLk6GJQsqaUBKTNV-1">
          <mxGeometry x="310" y="290" width="220" height="100" as="geometry" />
        </mxCell>
        <mxCell id="OPoXYdPVsy5MxGp2nYEl-9" value="&lt;ol&gt;&lt;li&gt;accept JSON or JSON file&lt;/li&gt;&lt;li&gt;Masks Values&lt;/li&gt;&lt;li&gt;Simulate failure if &quot;triggerFail&quot;&lt;/li&gt;&lt;/ol&gt;" style="text;html=1;align=left;verticalAlign=middle;resizable=0;points=[];autosize=1;strokeColor=none;fillColor=none;" vertex="1" parent="OPoXYdPVsy5MxGp2nYEl-0">
          <mxGeometry y="20" width="220" height="80" as="geometry" />
        </mxCell>
        <mxCell id="OPoXYdPVsy5MxGp2nYEl-1" value="&lt;b&gt;POST/test-post&lt;/b&gt;" style="rounded=0;whiteSpace=wrap;html=1;" vertex="1" parent="WIyWlLk6GJQsqaUBKTNV-1">
          <mxGeometry x="160" y="290" width="120" height="60" as="geometry" />
        </mxCell>
        <mxCell id="OPoXYdPVsy5MxGp2nYEl-21" style="edgeStyle=orthogonalEdgeStyle;rounded=0;orthogonalLoop=1;jettySize=auto;html=1;exitX=1;exitY=0.3333333333333333;exitDx=0;exitDy=0;exitPerimeter=0;entryX=0;entryY=0.5;entryDx=0;entryDy=0;" edge="1" parent="WIyWlLk6GJQsqaUBKTNV-1" source="OPoXYdPVsy5MxGp2nYEl-2" target="OPoXYdPVsy5MxGp2nYEl-1">
          <mxGeometry relative="1" as="geometry" />
        </mxCell>
        <mxCell id="OPoXYdPVsy5MxGp2nYEl-2" value="&lt;p class=&quot;p1&quot;&gt;Uploader&lt;/p&gt;" style="shape=umlActor;verticalLabelPosition=bottom;verticalAlign=top;html=1;outlineConnect=0;" vertex="1" parent="WIyWlLk6GJQsqaUBKTNV-1">
          <mxGeometry x="60" y="300" width="30" height="60" as="geometry" />
        </mxCell>
        <mxCell id="OPoXYdPVsy5MxGp2nYEl-31" style="edgeStyle=orthogonalEdgeStyle;rounded=0;orthogonalLoop=1;jettySize=auto;html=1;exitX=0.5;exitY=1;exitDx=0;exitDy=0;" edge="1" parent="WIyWlLk6GJQsqaUBKTNV-1" source="OPoXYdPVsy5MxGp2nYEl-10">
          <mxGeometry relative="1" as="geometry">
            <mxPoint x="320" y="560" as="targetPoint" />
          </mxGeometry>
        </mxCell>
        <mxCell id="OPoXYdPVsy5MxGp2nYEl-32" style="edgeStyle=orthogonalEdgeStyle;rounded=0;orthogonalLoop=1;jettySize=auto;html=1;exitX=0.5;exitY=1;exitDx=0;exitDy=0;" edge="1" parent="WIyWlLk6GJQsqaUBKTNV-1" source="OPoXYdPVsy5MxGp2nYEl-10">
          <mxGeometry relative="1" as="geometry">
            <mxPoint x="510" y="560" as="targetPoint" />
          </mxGeometry>
        </mxCell>
        <mxCell id="OPoXYdPVsy5MxGp2nYEl-10" value="&lt;b&gt;Log result&lt;/b&gt;" style="rounded=0;whiteSpace=wrap;html=1;" vertex="1" parent="WIyWlLk6GJQsqaUBKTNV-1">
          <mxGeometry x="360" y="440" width="120" height="60" as="geometry" />
        </mxCell>
        <mxCell id="OPoXYdPVsy5MxGp2nYEl-23" style="edgeStyle=orthogonalEdgeStyle;rounded=0;orthogonalLoop=1;jettySize=auto;html=1;exitX=1;exitY=0.5;exitDx=0;exitDy=0;entryX=0;entryY=0.125;entryDx=0;entryDy=0;entryPerimeter=0;" edge="1" parent="WIyWlLk6GJQsqaUBKTNV-1" source="OPoXYdPVsy5MxGp2nYEl-1" target="OPoXYdPVsy5MxGp2nYEl-9">
          <mxGeometry relative="1" as="geometry" />
        </mxCell>
        <mxCell id="OPoXYdPVsy5MxGp2nYEl-29" value="success" style="text;html=1;align=center;verticalAlign=middle;whiteSpace=wrap;rounded=0;" vertex="1" parent="WIyWlLk6GJQsqaUBKTNV-1">
          <mxGeometry x="280" y="500" width="60" height="30" as="geometry" />
        </mxCell>
        <mxCell id="OPoXYdPVsy5MxGp2nYEl-30" value="failure" style="text;html=1;align=center;verticalAlign=middle;whiteSpace=wrap;rounded=0;" vertex="1" parent="WIyWlLk6GJQsqaUBKTNV-1">
          <mxGeometry x="490" y="500" width="60" height="30" as="geometry" />
        </mxCell>
        <mxCell id="OPoXYdPVsy5MxGp2nYEl-34" value="Logs" style="swimlane;whiteSpace=wrap;html=1;" vertex="1" parent="WIyWlLk6GJQsqaUBKTNV-1">
          <mxGeometry x="180" y="560" width="200" height="60" as="geometry" />
        </mxCell>
        <UserObject label="&lt;ul&gt;&lt;li&gt;submission.log&lt;/li&gt;&lt;/ul&gt;" link="submission.log" id="OPoXYdPVsy5MxGp2nYEl-11">
          <mxCell style="text;whiteSpace=wrap;html=1;align=left;" vertex="1" parent="OPoXYdPVsy5MxGp2nYEl-34">
            <mxGeometry y="20" width="200" height="40" as="geometry" />
          </mxCell>
        </UserObject>
        <mxCell id="OPoXYdPVsy5MxGp2nYEl-35" value="Logs" style="swimlane;whiteSpace=wrap;html=1;" vertex="1" parent="WIyWlLk6GJQsqaUBKTNV-1">
          <mxGeometry x="440" y="560" width="200" height="80" as="geometry" />
        </mxCell>
        <UserObject label="&lt;ul&gt;&lt;li&gt;submission.log&lt;/li&gt;&lt;li&gt;failed.jsonl&lt;/li&gt;&lt;/ul&gt;" link="submission.log" id="OPoXYdPVsy5MxGp2nYEl-36">
          <mxCell style="text;whiteSpace=wrap;html=1;align=left;" vertex="1" parent="OPoXYdPVsy5MxGp2nYEl-35">
            <mxGeometry y="20" width="200" height="60" as="geometry" />
          </mxCell>
        </UserObject>
        <mxCell id="OPoXYdPVsy5MxGp2nYEl-37" value="retry_runner.py" style="swimlane;whiteSpace=wrap;html=1;" vertex="1" parent="WIyWlLk6GJQsqaUBKTNV-1">
          <mxGeometry x="440" y="690" width="200" height="70" as="geometry" />
        </mxCell>
        <UserObject label="&lt;ul&gt;&lt;li&gt;Tries 3 times max&lt;/li&gt;&lt;/ul&gt;" link="submission.log" id="OPoXYdPVsy5MxGp2nYEl-38">
          <mxCell style="text;whiteSpace=wrap;html=1;align=left;" vertex="1" parent="OPoXYdPVsy5MxGp2nYEl-37">
            <mxGeometry y="20" width="200" height="40" as="geometry" />
          </mxCell>
        </UserObject>
        <mxCell id="OPoXYdPVsy5MxGp2nYEl-39" style="edgeStyle=orthogonalEdgeStyle;rounded=0;orthogonalLoop=1;jettySize=auto;html=1;exitX=1;exitY=0.5;exitDx=0;exitDy=0;entryX=1;entryY=0.5;entryDx=0;entryDy=0;" edge="1" parent="WIyWlLk6GJQsqaUBKTNV-1" source="OPoXYdPVsy5MxGp2nYEl-38" target="OPoXYdPVsy5MxGp2nYEl-36">
          <mxGeometry relative="1" as="geometry" />
        </mxCell>
        <mxCell id="OPoXYdPVsy5MxGp2nYEl-40" value="loop max 3 times until success" style="text;html=1;align=center;verticalAlign=middle;whiteSpace=wrap;rounded=0;" vertex="1" parent="WIyWlLk6GJQsqaUBKTNV-1">
          <mxGeometry x="660" y="595" width="110" height="30" as="geometry" />
        </mxCell>
        <mxCell id="OPoXYdPVsy5MxGp2nYEl-41" value="&lt;ul&gt;&lt;li&gt;In reaiity, how do we define loading .json from LSMV is failed?&amp;nbsp;&lt;/li&gt;&lt;ul&gt;&lt;li&gt;In real use, check for schema errors, missing required fields, or HTTP 500s&lt;/li&gt;&lt;li&gt;&quot;triggerFail&quot; is temporary here for testing failure path&lt;/li&gt;&lt;/ul&gt;&lt;/ul&gt;" style="shape=note;whiteSpace=wrap;html=1;backgroundOutline=1;darkOpacity=0.05;align=left;fillColor=#fff2cc;strokeColor=#d6b656;" vertex="1" parent="WIyWlLk6GJQsqaUBKTNV-1">
          <mxGeometry x="830" y="280" width="310" height="120" as="geometry" />
        </mxCell>
        <mxCell id="OPoXYdPVsy5MxGp2nYEl-44" value="" style="edgeStyle=orthogonalEdgeStyle;rounded=0;orthogonalLoop=1;jettySize=auto;html=1;dashed=1;dashPattern=8 8;" edge="1" parent="WIyWlLk6GJQsqaUBKTNV-1" source="OPoXYdPVsy5MxGp2nYEl-36" target="OPoXYdPVsy5MxGp2nYEl-11">
          <mxGeometry relative="1" as="geometry" />
        </mxCell>
        <mxCell id="OPoXYdPVsy5MxGp2nYEl-50" style="edgeStyle=orthogonalEdgeStyle;rounded=0;orthogonalLoop=1;jettySize=auto;html=1;exitX=0.5;exitY=1;exitDx=0;exitDy=0;entryX=0.5;entryY=0;entryDx=0;entryDy=0;" edge="1" parent="WIyWlLk6GJQsqaUBKTNV-1" source="OPoXYdPVsy5MxGp2nYEl-36" target="OPoXYdPVsy5MxGp2nYEl-37">
          <mxGeometry relative="1" as="geometry" />
        </mxCell>
        <UserObject label="&lt;b&gt;retry_runner.py (after 3 failures) → Notify developer or queue for review&lt;/b&gt;" link="retry_runner.py (after 3 failures) → Notify developer or queue for review" id="OPoXYdPVsy5MxGp2nYEl-51">
          <mxCell style="rounded=0;whiteSpace=wrap;html=1;" vertex="1" parent="WIyWlLk6GJQsqaUBKTNV-1">
            <mxGeometry x="440" y="810" width="200" height="60" as="geometry" />
          </mxCell>
        </UserObject>
        <mxCell id="OPoXYdPVsy5MxGp2nYEl-52" value="" style="edgeStyle=orthogonalEdgeStyle;rounded=0;orthogonalLoop=1;jettySize=auto;html=1;" edge="1" parent="WIyWlLk6GJQsqaUBKTNV-1" source="OPoXYdPVsy5MxGp2nYEl-38" target="OPoXYdPVsy5MxGp2nYEl-51">
          <mxGeometry relative="1" as="geometry" />
        </mxCell>
        <mxCell id="OPoXYdPVsy5MxGp2nYEl-53" value="" style="shape=image;verticalLabelPosition=bottom;labelBackgroundColor=default;verticalAlign=top;aspect=fixed;imageAspect=0;image=data:image/png,iVBORw0KGgoAAAANSUhEUgAAAiEAAABWCAYAAAAZr0bXAAABX2lDQ1BJQ0MgUHJvZmlsZQAAKJF1kD9IQlEYxY9mGNUg1RQNb2kILEItKFrUQYIi0aI/23tP8wn+ubz3JNoL2loinBqbotrcwiVa2oqE5hbnQIKS17laqUX38nF+HL7v3o8DuH2qEDkPgHzBNhOxiLK1vaN46xiAB6NYQEjVLRGOx1fYgm/tPY0nuKQ+TMu3VrWscVgsLZbP7q/etJGbv/09ZzCVtnTqB2teF6YNuELk+J4tJB+Qx0wuRS5LzrT5QrLW5mqrZz0RJT+SfbqhpsgvZL/W5We6OJ8r6V87yO2H04WNJHWcNYE1pLAPizdNVRBjEkEkwel/5kKtuSiKEJwwkUUGBmzOhukI5PiSgmUUoGMGfnIAs6w5mffvHDveCf+KHPOrZMdbugWu64zO3fEmL7nKEXBXE6qp/qTranis3WCgzUMVoP/UcV43Ae8U0Kw5znvFcZrnQN8zUG18AiC0ZkqMCe0mAAAAVmVYSWZNTQAqAAAACAABh2kABAAAAAEAAAAaAAAAAAADkoYABwAAABIAAABEoAIABAAAAAEAAAIhoAMABAAAAAEAAABWAAAAAEFTQ0lJAAAAU2NyZWVuc2hvdDEJT9UAAAHVaVRYdFhNTDpjb20uYWRvYmUueG1wAAAAAAA8eDp4bXBtZXRhIHhtbG5zOng9ImFkb2JlOm5zOm1ldGEvIiB4OnhtcHRrPSJYTVAgQ29yZSA2LjAuMCI+CiAgIDxyZGY6UkRGIHhtbG5zOnJkZj0iaHR0cDovL3d3dy53My5vcmcvMTk5OS8wMi8yMi1yZGYtc3ludGF4LW5zIyI+CiAgICAgIDxyZGY6RGVzY3JpcHRpb24gcmRmOmFib3V0PSIiCiAgICAgICAgICAgIHhtbG5zOmV4aWY9Imh0dHA6Ly9ucy5hZG9iZS5jb20vZXhpZi8xLjAvIj4KICAgICAgICAgPGV4aWY6UGl4ZWxZRGltZW5zaW9uPjg2PC9leGlmOlBpeGVsWURpbWVuc2lvbj4KICAgICAgICAgPGV4aWY6UGl4ZWxYRGltZW5zaW9uPjU0NTwvZXhpZjpQaXhlbFhEaW1lbnNpb24+CiAgICAgICAgIDxleGlmOlVzZXJDb21tZW50PlNjcmVlbnNob3Q8L2V4aWY6VXNlckNvbW1lbnQ+CiAgICAgIDwvcmRmOkRlc2NyaXB0aW9uPgogICA8L3JkZjpSREY+CjwveDp4bXBtZXRhPgo9fE9jAABAAElEQVR4Ae2dCXxV1bX/FwQIEDIwhAyEJMwEJMgsIIOCSFF8IODwsX0qauvwaluHf53q09ZqW+2zfc/aqsXaVlGhDlWrDA4MKjLIFOZ5CJAwEwiBAPrf33WzLyeXc4eEYFX2+nzOPcMez7rnnP3ba629Vq2WLVt+KY4cBxwHHAccBxwHHAccB75iDtT+ittzzTkOOA44DjgOOA44DjgOKAccCHEPguOA44DjgOOA44DjwL+FA5VASN26daVxkyZht8TExDPSyRtuuEEuueSSGqn7jjvukDFjxlS7rp49e8rPfvYzSUpKqnYdfgXbtGkj9957r8TFxfklu2uOA44DjgOOA44DZx0H6njvuHuPHvLTe37qvVTpeOHChfLIz39R6VpNnKSnp9dENVoHg3ytWrVOq77TLe/XOKCG7UzU7deeu+Y44DjgOOA44DjwdedAJRAy97PP5PJRo7/ufY7Yv8cffzxierTEBQsWCJsjxwHHAccBxwHHAceBM8uBSiAkJzdXLhp2UaUWX5v8D9m3b1+la+FOhgwZIoMGDRLUOuXl5fLuu+/K3Llz5YILLpCBAwfKww8/HCz64IMPypw5c2T69Ol6rVGjRnLfffcJKp+jR4/Khx9+KLNmzZIGDRrI/fffL2vWrJH27dtL7dq1ZdmyZVJSUiLnnXeenu/YsUOefvppOXHihPy///f/ZMOGDfKPf/xDkpOT5cYbb5SmTZvKl19+KUVFRfLnP/9ZysrKJFxfu3fvLqNHj1aVDB1LS0uTa6+9VlJSUrT+LVu2yIQJE+SLL76Q733ve9K8eXOVbjQxaqzDh8tkxoyP5OOPPw7eZ7iDSPVS5sILL1SexcfH673u3btXGjZsKE8++WS4Kt11xwHHAccBxwHHgW8UByrZhHxhBvGyw4crbQy2sRAD/tChQ2XFihXyhz/8QbZv3y4jR45UkFC/fn0FJt566tWrJ1y3hEqmsLBQXnrpJdm9e7d85zvfkVatWml5VCytW7eWSZMmydKlS6VLly7Sq1cvmTx5ssyePVsyMzOlT58+WhV1Alygq666SoEIoAFQwsA/fPhwvRaurwz6deoEsBn72267TegrbQGM6NP48eO1fkBBs2bNFNy88sorBjwdkYsvvljTIv1EqzcvL08uuugiAVy9+OKLsnXrVsk1ANHeV6S6XZrjgOOA44DjgOPAN4UDlSQhDHYTX5p4St+9dgxIFPzIAgoG5sMGyDzzzDN+2cJeO3jwoPztb3/TdIDMz3/+cwUa//rXv/TaBx98oACkoKBAunbtqhKWJUuWCFu/fv0kIyPjlLoBFPQdWwzAy6JFizQPYASK1td27dopeAJUFRcXaxmkKueee64e84PEB6AAHTlyRK6//noFKhs3btRrfj/R6sU49tixY0EeLl++XO655x4FZH71uWuOA44DjgOOA44D30QOVAIhffv2lXvvvy/sfSz8fKE89N//7ZvOIP2ZsSlhAL377rt1cEYtYdUtvoU8F1E3WEL6UlpaqpILe23//v16CAhiA+hY4twLlOz1l19+WUHBFVdcIePGjZOdO3fKCy+8oIAilr7m5ORoWxaAUC/Smh7GgNeCLoCHJSQXUDSJRbR6Uf2gMvJSyYESSWmc4r3kjh0HHAccBxwHHAe+0RyoBEKw37hi7LiwNxRNNfPPf/5T2IwXVhk1apTaNSB9oBwqFdQQx48f1/qx7fAS6hwvIaXYtGmT91KVj3ft2iW/+c1vBIkI9iOoOL773e/KU089pf3066u3kW3btim4ady4cdAuBrURtide8OEtE8txtHpJB+jAkwMHDqg6KD0j/bTajKVfLo/jgOOA44DjgOPAV8mBSiAElUbf/v1OaX/L5i0yzwCUSISKZOzYsfLee+/JvHnzBANObDUAHRxD+O+YNm2ajBgxQgd3r/SC2f+ll16qahbsQQAsixcvjtRk1DQkMgAGbEJQ42DsiZojUl+9la5evVrLY9w6ceJEwfgUSY9XMuLNH3qMagaj3jfffLNSUrR6sT3p1q2b3HnnnWoXgvrI+RepxEJ34jjgOOA44DjwLeBAJRBSz0gM0poH7CW893Zg/wHvqe8xg3z/fv3VGBWDVKQfn3zyiaBGYcPeBFsKNmb3gAOvfQlSi969e0v//v21LCtnVq5cqXYbNOjNG8s5eaZMmSKoYrCngLA7ee211wTVT7i+etvB3uMvf/mLroL5r//6L+0DRrPW3sWbl/pDzzEmTU1NJakSRasXfv3f//2frioCgCChys7O1lU+lSpyJ44DjgOOA44DjgPfYA7UqukAdszYMQT1W9aLWoSVJoCBcITqg0E4dEAPlz+W6yz7ZeBn6a+XIvXVm4/jhIQELW/VSaHpfueonLiPSPfiVy+Gq0iLWNGDagb7kwceeECBnAVAfu25a44DjgOOA44DjgPfJA7UOAj5Jt3817WvqKLwmYKBK8AJ8Ab4ee6554Kqra9r312/HAccBxwHHAccB2LlgAMhsXLqK86HlAa7EAxhWdWDgzbviqCvuDuuOccBxwHHAccBx4Ea54ADITXOUleh44DjgOOA44DjgONALByovE42lhIuj+OA44DjgOOA44DjgONADXDAgZAaYKKrwnHAccBxwHHAccBxoOoccCCk6jxzJRwHHAccBxwHHAccB2qAAw6E1AATXRWOA44DjgOOA44DjgNV54ADIVXnmSvhOOA44DjgOOA44DhQAxz4VoCQP/3pT/Lyy69ocDovT+LiakuDxHreS5WOa8fVkjp14ypdsyf1G9aVOvX802ye6uypk3b9iOt14ys5sfXL5nutXn3/ctxfwwg88K3MczFcvWSBR1Ul7rFhUryJCHwqD3Djz/9VyyctWjt14+Mkvhr9iVSv6Y40aFQv7HNwJtqM1J9Iaf/xH/+h7wDvATGSqkp169YVPPyyrypRpnXr1sGgjt7y/KfUiwPDqhLlcDToRyxdb9asmV/SWXPt7OBBLanXMHzgzkCaeVG/JhTpXYili8QMGzRoUCxZo+aJqxsvDRufGl3eFoyrY75t8Q3tacg+Mt9DMp/Wqf/IFUOVjZs0k3Yd86VJs+aysuBz2bxxbQylzkwWvLDOmzdXA9PZFvpc0lYy2jTW0/Ijx2X9omJZPX+7TZb8QdnSumvARf3ubQdlzltr5MSxL6RZi0Q577L2BpwE8Nme7Ydk0fsb5dD+QLTcEd/vJt6BeW/RIZk1aWWw3nAHgIF+o9tLk/RGmmXdwiJZ9vFWPWZg7nNpO2menaQxdfbvPCzz3l0nh0sqe3j1qzuxSQM5f0xHiW9QRz2zznt3vexYv0+z9v2P9pKWEwgMeLz8hKxfUiwr52yTjNYp2p5fffCpYPYWadHexMm5uLX258jhYzL7H6uktIIH8BX+MUAfNzxb+/kOWT3vJG/96uVa2+7pcs75LTUZL7LFmw7ofX5x4ktp2y1dOp+fpe2Rtn3dPvl82gYhLRIB2i64upMCG/LxPy2bvVWKNu7XYqNu73VK8W1r98r899afct17oXFaggy8Ik/7w/X9xaXy+fSNcnBvmQLFmmhzyHfPEf6/d/60UPh/6ht+Dh/f1dsNWfnZNuVtpDQKvPXWWxqm4IUX/qpeiStVEuGEQJEPPfSQCTqZbe41kHHq1KkaruBHP/qR9OrVS4M+ktKhQwd5+OGH5bHHHpMlS5Yo6Pj5z3+uIQVsE4Q5oDx08803mw/q4GC9n3/+uTz++OPygx/8QC644AJbRPf851dffbUe23Zx2gdt3rxZfvrTn+ox8aUuv/zyYDgHnPgRlLIm6G9/+5vy7tZbb9XQDtR5zjnnqLfi0PofeeQRue6664SYV8SWsvSzn/1M+RSpT9xDuHTCXxBYEw/JoUSb+AsKx4MXTIRwG907tOz3vvc9jZsVet2ejx/aU/p2zLGnwf3df3lX9peW6fkfbx0tdYwX6HU79sivX5uh1xrVrydP3jgymN8eTJg+Xz5bvUWuN/X2M/W+9mmBTFm4xibHtG957nDpNOQmk7eW+c6UybyJ98nB3Zu1bFJaa+l95SMSV7e+Of9Slk39g2xb9qGm1YlPkHb9r5asrsP0fPqTV+j+TP7A90jvQqxt898CrmfOnBlrEd98fa5+TFIyO2jaieNHpbDgfVn14YRg3q4j75T09v31/NCerTJ34j3mGxT4nyPxPVhBDR5UC4TE128gfc4fKsU7CuVLEyOmVq1/v0CFWDQEp7NUeuCozHx1hRk0jkhul1Qd/Lau3qMDe/PsZAUgn7yxWgfu8y/vKB16ZcqKTwt1Fs5+25o9UtdIF/qP6iB5fVtUGrRIL1yzV5s6cfwL22TEfcfzMiXJDDhTn18i2Z2aSd55LXSgBAC1zk9TsDD9bwVyzACmwVd1kg69MxX8RKzUJPYe0UYO7TsiH764Vnpc3EbPGdQAVACKJR9ukqOHj0tWhybSbWgr2bpqj+zcUiLTXliqVXfun6XAaPZrq/T82NETOvPvNbyNDn5bVu6WAePyhPMZryzXPF0vyJGdmw/IYlN3y47NpNuQXNm8bJcAViLR7sKD8tHE5XJwX5kkNW0og67Mk5xOqbKxYKcBG1/IvH+tk11bD0pK84YKrOjn5uW7IlVp/i8xoGu/bFharAP5uRfmSveLWsl7zy0y/60E75NKkFxccHVn2V4B0iJVXFZ6TD59c40AMuMb1JW+l7WTTv2yZO47a2ukTQBwo8Z8QE9SBQZQwFd2qFwTANBQpDTSGcRDwxJwPRpdd+11ktUiS371q8d0gCPatJVaIMXwBpn0HlPvvffeq2V/+9vfysKFCzVA5KFDh7RJ4kcNHjxYgzcSr6l9+/aSl5enadRDf++//34958dG6G7btq307dvXSHVelnfffVdatWql5+QhDMJVV12lMaWIrcTkg/OaINqlPp6Z4cOHa8BK6rX3DLhau3ZtsCliYc2fP19Gjx6t0hobiqJNmzayKUr0bwJUrlixQusCqBEfCnAHEbKiRYsWeuzXZiQeAFy4h0aNGqnHZWJnzZo1S+vyfhv1QpifkrKjsqfkcDC13IA8qFVaEwUgHOemBSZ3HB8z7+3G4n3SuFEDSUmoL0ePHZftew/K7pJSkoPPrZ5U4Qcg0WnI96Vw6XTZvPAd6XPNr6Tb6Htl1nM3ay3dR98nRw7ukfmTHpQeYx6Qcy6+TYrXzNGB9NzL7tYBuGx/sZEEpFeh1epnjfQuVL/W6pc8vL9I1n4yUUqK10vrPmOkVa/RsnXJVCndU2jARz8FIIv++Wvz4fhCuo26VzpcMF6WGyAXje/V71H4ktUCIcfKzQD//ttSdrhULhoxNnzt/8YUK2WgC+sXFSkIQQKwfnGxZOc1lZI9ZWbAKzGDc1PtZcuOTRWEcI0NOlp2XAdtZvBe4jqDxJdfRJ6le8swWG8yAyrlGqUEBp+Wec0EEIIagcHGShoO7DpsBukG3uK+x/UT6upMmsGy3ICHRDOo8dFMz00RZvs7t5wMPMjACwhBErNl3+6glKXc3MsJ8yHxSl3gBbRmwQ7tG2oXtnpG2nKi/As93mP6jZTC8iohJT4IQlJbJhlA1FqKDDhY/NEmrYuf/TsDHyZ7fLikXCVPgJANS3cG88ETpEEt2jauBEL6GUCY1KyBzJ68UgCZEP1HcmOJ/xdJDRIG/mPvfTHwM/hZSZEt47c/Yv4nNujwsaMCgEI6BJ1um/ASiVDBrK0qUdJKPT88I2UHj+qA6Lmsh5HSQvPGcp7fNV927tqpkg3yE3QyFmLmh2Rk9uzZOhhTZvr06cGigBCCPb7yyit6bfny5cLmpQ0bNnhP9fjiiy/W/whpALRmzRrdOCb6NdKRN954Q0pKAu/oU089RVKQfvKTn0j37t3lnXfekVdffTV4PdoB7QLiduzYoYE0iZrtpcLCQgntL/cLCDn//PM1ejhRtuFLNB7i+djWxTEAzJ7TpgUhfm3iRTkcD8gPWRUWnpa99WpilJ/pi9b4Six6ts3SkoCUpAbxkp2aIlt27VfQ8ejkD2Vwl9ZyzaBusnxLsfzxvc+itBI9uUXnCzTTqhl/kfqJTY1kuoFu8QmNjTq7jsQnNDEz+yfMu1gi9ZOam7y1JCNvgBlop8lqU+bQ7q3Spu84aX3emR+for0LPBcPPvigAZvpOmlfvGSxSgT5FhGS4+GHfy45OTkmNMcx9YpNnDNLqGaIxk4bPJ/PPvts1OeLsgXv/d5WIWtnv6QgJDNvkKz9+CWVEB09ZMaHdSYwarcRmi+9fV8FIZH4frQ0IGEPVlxDB9UCIbw0AJBvCjU1KhZoz/ZA4LyGyfFy0AxQ2Gcwc0Z0n5YbUFuE3hPX9+4IzO5sGjN/trKD5bJg6npTb+V0m8+7R11SsrtMQUCLdk10hm1tNTav2CWt8pvrDP6okSakG7D0+dRTP9De+jhumBivl0qMiqBdj3QDRI6r9AabC0uoFZoblUxLA7ZQnezYEFBT2HS/PeUBRUh5egwzYMLwJ71ViqpfAEgAhjwjFYg3ICizTRMd7L08qGv4ykDbMKneKdWjVsgygzlAJcH8D6i6Qgl1V3JqAwMKA9Immw7Iot64OrXtpVP23Cvg6KCRDoVSm3PTZMvKPVFVPN5ylElObWgkPk1l+ceBj7w3neOqttnNSGo2LdupEqzQujgfdl2+XkYKg3ToiJHKWIqUZvNUZb9o0SJVjaBisTNnPo7RKDc3V7MgAfGjRgmNZP7K+X5Jeg2w/OSTTwbTCdT4xBNPqBh6wIAB8vTTT8u0adN0cLcSnqVLlypAISr2jBkz5O233xaib3uJAJjo5VGTVIUAOAzYqDvGjh2ndXilB0TRPnIk8EzBnzvuuENVNqWlpQpa3nvvvaCK6aOPPqpK02Hz+rUZCw/CVhhDwuAubSSvZZrm3LbngEz6OCAxzc8NTMSmfL5arjg/X3q1y1IQEkOV1cqCBAM1woljR6Tbf9wjB4rWSnJ6O2mQkmbe/8B35YCZ5XcYdK2ZGJUZtYyxf0jJ1LYO7tpcrTZDCxHVHYkXwDQSRXsX7r77bo2mPnnyJMnKypJ+/foJNlxvvvmmBioFgPzrX+9IUmKSDBw0MPhMk/eWW26RjRs3qopu1KhReh4N5Ib2NbV1D720e9Mi3TdISpXSfdtV6tFh8HUVvG2raZH4/rUCIaE3+XU+x2ag94i2UmhUMcyuoXrmWonRMXYZkC27jLRgm7E/YJANJewUGIBQk1hCFcOMPiG5vqppul/UWqb/danq83M7p9pslfYbjC0GhMSh5/DWsnTWFmma0Uhn9VxnwD9kgES2kYzwgQPc2L4iqbGSE/JaOrCr1MygAoMFgzbqnQ9fWi79L+9QyWYlqVlDrZcBf5NRmZw4fsJWEXYPYEKdA1hCZYAaBv5YW5jiTfullVFxte+ZqbYzXqkTlSKBwEbkgAFdoUTdDOjJpl8Hdh8O2tp482GLwsC7fnGR97La9GCH4h2UvRlSmieYPmWoLUmolIr24EE0WxBvfRwD3uAh/AgFo6RXtU342DQzUeYb250m5hnw0jFjF7L4o82yz4BegDPqH9SES2Zslkhp3jqqevzXv/5VAyX26dNHP3DMupAuLFiwIGJVqamBZ90vWjYFaxujcKuiCFcRkhJL9hgQ8OKLL6rdB6qWcePG6Qd40qRJ5v05YdRGv9KZ4bBhw4wB7jApKFgqjz76qK1GJTMHDhwQ7E9ipeTkZFVBTZ48WaU6tIkqySvZoU57P1Z1RP2oVbp06aJN9ezZU4EJYIUBhHr86Pnnnxfqi0Z+bcbCA796o/XHlmma2FDYoPTGiQpC4owaLC2lkRw6Ui7z1xYqCMnPzTB2HstssWrtsf1BvRRKqKukAZMJo0bOH6aSkE///qgMGP8HI41NNoAjAELiGyZLTvdLZM5LP5VeVzxs0gKTzdD6qnsOMAUI3nXXXRq/K1w90d6FnOwcWb5iubz++utaBZK6/v37KwgB6Owykkieeah3n9665wfbJ2jlypWCmg+pIIAHlelnn8UmbarXMEnyL71D9mxZKvsKV2h9cfUaKLjLH/EjKSkyNoSrZivAQ5oEf8PxXQufgZ9qSULOQD/OSJW1jcHn+WM66KC10DPjRmKQZuxCUINMfX6xZLRtooO/txOobs4Z0FJnolZNQjoDOQRIQGqBUSiif1OBqhY0MeQHdQPUqW+WDiabzHmaMUJFrA8xcCKdwZbjCyN9wKC0Z4UNRrJRPzROqzxYUeb4sROyt0ICgxEu9h8YTdYxUgJrR0A+bCrYGIAvujZf9hkDy2h2Fqib4A3SHgxd7UoW6o0zBrt9jeEuxp/rjJoLScugKzup4SZqFAjjUAwq/QhJCnYhGOpimNllYHYlYIDBa7OsJPngxYJTJBaW9371Ir0ZaGxXNhopDXYvodSqa3NVhXlVQqF5/M5nGLsiZu09hrUyBsvt5N1nA7MJ8lanTexVthtVWYrhW0pa4GOPMTS8wziVZwMCoCH1aW0kMUtnbo6YFoPgQuv0+2HA/N3vfqdJfBhvuukmGT9+vIIQ72DrLQtQRtQPIXnwI2x8rFrAL506fvnLX/olqSoFdQorbhgERo++XFUwSCYwiP3xj38sAAcAEx9kPuTz5s3TugAOXvDg20DIRVQxUOfOndV2hb4NHDiwUj1///vfT1EnUYYBE+NdjAlbtmypIIjr2GUwcPgR0bFjASHh2ozGA782o/XHlpm+eK3MWBaQwpabbwzUqWVzfQcS4uvKg1cN0WsZBqDwXbATIb1YxR/44wdCAKKFZQeMpNpM9C68QQre/b3JFxiqys31uGMBENLN2IVsXzHLDKTrNL28LPD9qWI3gtmxQ7I2QMGL5gBJBls4ivQuUB+A3GtPRH5rd5WRkSGrV68OVk0azwfUvHlzHZdQwVlCKmPT7bVweyRGfb/7hBw/UiqL3jgJ1JEcpbTIU/7OfOb70qIL/ykT2i/NmBSe7+HaOd3r31oQwp/PYMnsHQmBd5XFYWNPgG0Es04G3GRjf3Hk0EmRNzNVVqssMemRjBgx4oRQO7DS4+PXV4X9P2gHIPDBi4HZA7Nr7AygVDPoMstmEIKoCwBkbkGWf1Ko1/x+sAmBMLhcMadQ1UuomLx2ELYcNhRIWFiBEw2EUB4AV7ypRO1KAGQQ5QEd0I6K1SeAGnjbLCswkJLG4NnE8BC7BtL9CBBVbKRQmRUrmMjTrkeGqqVmvnrS5sNbFhUOki2MYilvCcAEEEJCg9QglLiXHGMMvOqz7aFJCiDbGFsRJA3LP9l6SjoXGJS2G/sWpFLwHEnM6bSZaWxd2Pg4QQDOj19bGZR+6UXzA1hmlRYfaqRoXoqU5s1XlWPEvB07dgwu8cXuwpimBquwy3f37t2r9h6GLQoA5syZE8xjDw6VHpJ27drZ02rtUY8888wzarTJKhVUR5YYxAFPE1+aqCDAgpD8/HwFL6gtYrWHAMggYcA4FUIn36pVK9tUxD19AnBdeeWVaqthAdCqVasUQEUsfJqJ4XjgV23U/pxTYfNx+Ijs3F9ZvdzTqF4gjFCRipwwEtg4A0AAJ8s2B6S8fm1Gu3b77beHzZLT/VLz/YuTA8XrpGjNp5JZYSNyeF+RUccEvnuoYFZM/6NRQTcy71JdVTGErTCGBFY2Eb3c0tChQ9Xeh1VHkYjVW+HeBb4dbNnZ2cEqsBGxUjUkgN6l5qSVlQUkyBgpQ3feeWfQcDtYSZSDWrXjjDHvr3UJ7uwJtxoJ+Ek7k7KSXUZ1laGGq6hYkpq3kmNHA1oC+BuO71GarHbyqbKwGKuqb1bIJDRKVOQYb4xmOPZDtTFWV+PZmLkyMH4+baMZMOqoWgHDSsjOlAEjDCoYiLJyBsIgFOkJhp27Cku0nF3FwMwX40QGevIBFHjAwg20WmHFT6GZnTNYHzMDi7WH2Lo6II5mOSordpCoMLihrkDSwoMdiRgMkX5wH4AuJCr0p8gMxgAYzvG7AUjJMaoijmMxyrR2IwAX7C/aG5UAEgwkIYAl2mhjJAtIRbDvYJBnkLaEmoFVO6iIvJTbpbmqYagTHmQbY92iChsVVFGs1CmYuUUBBjwP9fHS3RjWUq/X1gSJyiCzlBYJEtIXyrF57UYyjaQL/viBr0bGoJbVU9h+eAnjXvrIPaKS69ArwFukX6fTJpIUJF5sn729VpucMmGx/t9IgADAlj8YRLPyCQASKc3b76oe33bbbXLJJZfo7MquTLEfv/XrjRTMACX8jgBALrvsMn0mi4uL1T5izZrVKolgECcdiQLSFAh7DT6oLEUlDZVF5ZUstRTwAHrsRjn6gjSGsnycr7nmGgUIzP6RNDBQ5ObmqqEeS3rpnx34KT927FhtJ1ZfKQw6GRmZKsFA6sKGPQrGn1bNQr20afvJnqXNlgq3FZrBaoCuzosV+NiykfZ+bcbCg0h1VietU4WNyH9PnC4/eu4teXt+QKzfo02W1K9XRx66eqhc1ruTVn1OTrqet28RUNfZ9i7u3kGvk5eNcpFo+4oZmswqD5bhtjlvnDB4lh/er/ujpXulvNR8c8zyOOxCmMUXGbUCBDhJTM2R+MRm5r2vrccNkiu/35ox5GfdunUqlUAywbZ9+3Zdjh5qUB1SLOq7ANDgWWKFGM8lUilb5+LFRhKfniFIO1i2TpqlDz74QL9bP/zhD1WqmJCQoMvCI0kYbdkeY34mic2yjYHq/0p8o6aSaIAGRr0QK46gw3u3SwNj1JvappfsXBtQ70TiuxY6Az+Rn4QIDXbvPUCSUgKrBVq1zRO2uZ98IPv2VDYUi1DFGU0CLDDwnG9sJCyxcqJg1hYpNjPpzSt2S79R7TWJAX/N/IDxEUaGlMMegs3SW08tUKkKS1UtASrQ7Vu1ir3ut185d5s0a5kow284V5NRG1hJyEZjpAhgQj0BIYpfYpa/xkLzp2xQNcTIW3to9vlT1qv9ggUl2BVAGKWizrBLi/VimB8kMguNTwxUBwyEnM+s8IXCPSMh6mgABqtNOMfmpcT0OZRCMVS6MfI91yzvhQAyLMFFggPZFTn5gwPpXGMAfv/vBRwqUQaq2Okx0iXAIXThNQH+cYzfFyRKUGsDmDCc9VtC7K1LM1f8AGQAmZZ4Rub8c622fbpt2jpD9ykG7HjbRPI01ximQpHSQuupyjmiXXxIsEHMrp977jk9ZuULthc33HCDbvDqjTdeDy6Fxz7jF7/4hapHtID5YVkpBAhh9nfJJZeqXwuuWSNW/kfzislDDz3E5SBde+21OuO78MILZciQIXoddRErZVANIa1gRQ7tQpwDTtCVWzr5jASeFXs93J6VLfQFQ1dLSFWohz68//77etnyx+bBlgZjVGjuXLPKwNwroK0myN6DX5vcbzQe2D7Yeux5LPtQrjWoZ4x8zdLbcmNLZpfdLt6wQ0b16SydstN02W6LpsnBquvViRPOm5glu5CtD38ibJbwNxKJjh05JKyM6Tj4esnsNMh8Z47J3JfvDRZZ/M/fSK+rHpGht0/Uays+eNZ8pwIShCbZ+dLdLDu11O8/n5SyA8Uy68+32Esx7VmFFStFehdYTg54xo8IhMoFVRuE2pHn3frBsUbYpCFlw+fOsGEXB5ep4xcnln41zcZOqZYa9VIXVLT6Y1nyzv+YfUCy1HXkXXq9rGSn8pqTaHzXAjX8U8sga/uc1HDVX111EyZMEFAiOuPQFzdSL5BoYEPhNziFK8esv35C4GUKt4wyXFmuI3k5bpa5etUJNj8zYGbesYAaW8buGYj9lg1jCMp92iWtNn8se3S+rGbxU+9QHiNR2qwK0RfUNdR5OvrkqrRZ3bz819wjEiCreqtuXbGWU/6YZ4T2kLp4KVLamDFjgoaQON3Cx0asxDJBZthIOKyY2FsW/TXeObHS964YsXkAMgzCrCRgyamXkI5i24EKhy0WogzLVGmrqKiycTLl0ZUzY6xJqUMs/fo65TlbeMByXKQYpXu3+bC/liQ0yRSkJV9+cVI965PxK7sU6V3gHcGPjt97QBorvawqxtth+w5R1u998OatyjFqrDhjd3OkJCCR95aNzHdvztM//laAkNNng6vBccBxwHHAccBxwHHgq+ZAZJnYV90b157jgOOA44DjgOOA48BZwwEHQs6av9rdqOOA44DjgOOA48DXiwMOhHy9/g/XG8cBxwHHAccBx4GzhgMOhJw1f7W7UccBxwHHAccBx4GvFwccCPl6/R+uN44DjgOOA44DjgNnDQccCDlr/mp3o44DjgOOA44DjgNfLw6cFgiJj6+vngX/3bf0pz/9SV5++RV5IcS9bpzxphjqddPbV/xA4P3Sj/BlgV+GmibqpF0/4jpuyatDNrhcaFnuz0brDU2L5TxcvZSFR1Ul7hGfJjYejbd8pDRvPr9jvMLibTYc0Z62G4b34cpV93q0Zy9avZHuxS+NqJy8A2yxegv19gGvprnGKyj7qhJl8AVCuPFQwmke9dpYGaHpkc4pF847JH5LvO6uI9XzbU07O3hggqo1TAn7FwbS/L+nYQudwYRI70Iszfbo0UMGDRoUS9aoeTSycOOMsPmILVMn/qTn38oZI/O9ct7TO6vWiNekaar06DPIuJcOFMdL6rIl86T00OkFEKrurdSrV88EsJqr0T9tHQR1y6iIS4KzKQK8rZ6/3SYLgdLw+AkRPAwPm0RKJZjYeSbmDDE7IDxtEm6eoGzQiO93C0aT5Zxw67MqvIlyHo4AA/1Gt9eYNeRZt7BIbPRZBl9i1RDXhY823jnnvbsurJMwbxu4eieIHk7J8JBIwDnrmp1AeGnGAyyE19P1xrPpyjnbhFgwtOdH8Klg9hZ1T080W/qDM7fZ/1glNpAffIV/OPLCE+vaz3do1Fy/+rzX8L56zvkBL6T0FY+m3CdeVyOleesIPQa0XXB1p6DXVP4ngusVVcS2of/nXphr3NY3Cxad8vwSEysospM1nLQNH981WIYD3MITHdhLacYLLDGK8Ea7uMLLbaRnz3THuLpvqhGYAUXEEsL1vqW8vi2MC/l0ff7wmEosHHsvkdLeeustmTJlirzwwl+F9yFWwv04nktbtsxWz6GUw0sjnk+JckpwNlyvQ3jqfPjhh9WVNZ47AR14gcTRkiXKUR66+eabzQd1cLBeIts+/vjj8oMf/EBwUe0lngfcsEO2XVynQ8TmsB4lL730Uo0uat2m40HS9k8zn8YPTt7g3a233hp0KEXMmgceeOCUWh955BF1oZ2SkiI33nhjMB3PmPApUp+4h3DpBQUF6iE2XJsEdwvHgxdeeMEXCNI5nDj6OZqzHR8/tKf07ZhjT4P7u//yruwvDTyff7x1tHpIXbdjj/z6tRmaBy+oT944MpjfHkyYPl8+W71Frjf19jP1vvZpgUxZeNKzrc0Xad/y3OHSachNJkst850pk3kT75ODuzdrkaS01tL7ykfUpTt+WZdN/YNsW/ahptWJT5B2/a+WrK7D9Hz6k1fo/kz+RHsXYm2b/xZwPXPmzFiL+Obrc/VjkpIZ8BZ+4vhRKSx4X1Z9OCGYt+vIOyW9fSDEwqE9W2XuxHuCHmcj8T1YQQ0eBN7yKlaIP/41K5fIjm1bpK55aXudN1jadegiiz//tIo11Vx2XDh7XzI8hM40EVAP7j2isUEY/IgPg6dO4rQAQD55Y7UO3Odf3lFDpq/4tNCEIqgl7Let2WMCI9WR/qM66IDhDQFPunV/fsLELImFOp6XKUkGMEw1A2C2CaZGXBUGFwBQ6/w0BQvT/1Zg3OYel8FXdZIOvTMV/ESrm1gquDf/8MW10uPiNhpbhbgkACoABe7fjx42IbE7NJFuJvYKcXNwlz7thaVaNfFaCOY3+7VA8D08dSKtwT09A+6WlbtlgIlOy/mMV5Zrma7G9TpB5Bh0W5r4L0Tb3WwG4WieZ3FTTwTdg/vKTOydhiboXJ4JLJcqRBmOlBaJB+ZRNKBrv2xYWqxAC8CBu/n3nlukLtZx2Z7dqan+13u2H5SU5gly3NxjNDJYQQnwZb3CAma9hIfbHsNa6zPkvR7p2VN+Dc3VPgNCACWWkNp1MHF6cJlfaJ4/YuXAa56TSGmUZxD3uny2dUbbX3ftdZLVIsu4Qn9MGOCIA2OlFgA4NkveY67de++9Wva3v/2tumTH/TReHaGRI0fK4MGDNVz5a6+9pnEz8vLyNI166O/999+v5/zYiL02fg0RTfH62soEkuvbt6/mw3Mk8WcIbY4rbABD5Xg0weqqfEC71Ge6JcOHD5eJEydqHfaeAVfeSKh4h50/f76J8DtapTXW0yyRYTdt2hSxfSLvrlixQvMA1NLS0hTccYG4PXiLhfzajMQDgAv3gDfZ++67T0HprFmztC7vt1EvhPkpKTsqe0pOer0tNyAPapVmYmYZ/kO5aScjJxPUbmPxPmls3LTj3v3oseOyfe/BoIv3k0+PFo35ByDRacj3Nc7J5oXvmGBsv5Juo++VWc/drHV0NxF0jxzcI/MnPSg9xjwg51x8mxSvmaMD6bmX3a0DcNn+YmnYOD3mNk8nY6R34XTqrW5ZvMiu/WSilBSvl9Z9xkirXqNl65KpUrqn0ICPfgpAFv3z1+bD8YV0My7uO1wwXpYbIBeN79XtT6Ry1QIhe3YXCxtUXn5UthVuklZtOkZq5ytPs1IGGl6/qEhn4EgAiB+TnddUSvaUya6tJRoZlTzELgFccI0NIvItgzazdC9x3c9FujdP6DGDz6blxi2vmYE3SgmIrQmcBwhBvM4AZyUNBIsjQF40wgU8kpBP31xjIq6ekEQT74SPJsHXCMC300SptUQ0YEAIgGPLvt1BKQsu4gmQ5nXNbuO4rFmwQ/uG2oWNAIAnjMt5jveYfiPBsLxKMIHgLAgh8FsPI0UpMuBg8UebbBeMhOdkRF2OD5eUq+QJEBIpzVbQzwDCpGYNZPbkk1F26T+SG0v8v0hq4Av/cdtu6UZSUxTsJwH4qkL8X+Hc8wPguP/Q/yrSs8d/8q9nFqn7fiLpesk+F+SBtzwbxEBClRQp7XTc3+d3zZedu3ZqDBb6QiTdWIiZHzN+4sswGEPeQHKAEAJ3vfLKK5pGwC4btEsvmB8/t+sEwQOgEC8GIi6MjQ3TtWtXVf8SO4MIv9BTTz2le/vzk5/8RLp3764xOV599VV7OeqedgFxhErv3bt3EITYgoWFhaf0l/sFhBB/hjgyBN2DL9F4iGt7e+8cA8DsOe1ZEOLXJoHOkBD58YD8kFVhEaPEW68mRvmZvmiNr8SiZ9ssLQlISWoQL9mpKbJl134FHY9O/lAGd2kt1wzqJsu3FMsf3/ssSivRk1tURM0lfkz9xKZGMthAN4Kw4VI8PqGJmdk/YUJclEh9E4QNaUlG3gAz0E6T1abMod1bpU3fcdL6vLHRGzvNHNHeBZ6LBx980IDNdDPmfyGLlyxWiSDPOSETHn7455KTkyPHjx/TsAdEcbaEaub666/X54rn89lnn436fFG24L3f2ypk7eyXFIRk5g2StR+/pBKio4fM+LDOxDzqNkLzpbfvqyAkEt+JuHsmqFogJLQjqWmZst8MbF9XampULBAzYaihCXp20AxQzPiZOTPTRKzuR1wPHbiY+bMhLl8wdb2qbPzKeq+hLinZXaYggMB4qHGsrcbmFbs0hD0zeOKFpBuw9PnUDd7ivscNEwOB20qMOL9dj3QN/Y70hhm2pcZpCUJQvpYmDD2qExsh16b77SkPKELKw0wf/qS3SlH1CwBpgwm+l2cC48UbEJTZpokO9qitLNU1fAWoeKPd2jTUHETetZGEUXVZipRGHkAW9Xoj5Nqyds+9MoAfNNIhqH6jujqAX3ZbT3PdfOyXmGBN87ZpHlsm0n7YdfmazP81zwSTI3IxlNysoeSe01ym/mVJpSCJmuj5CX32bHkxvAslpEFItVCVEV24tYnsC6gCZERKC62nKucEyUI18thjjwVnznwco1Fubq5msUHpQvM3Smgk81cGwEloGueA5SeffDKYtG3bNnniiSdUDD1gwACNZDtt2jQd3K2EZ+nSpQpQ7rnnHpkxY4YGySPehpcaN26sdi2oSapCABwGbKRBY8eO0zq80gOi6xJMD4I/d9xxh6psSktLFbQAQqyK6aOPPqpK02Hz+rUZCw/CVhhDwuAuJvp1RdTcbXsOyKSPAxLT/NzARGzK56vlivPzpVe7LAUhMVRZrSxIMFAjnDh2RIOwHShaK8np7aRBSpp5/+tpnQfMLJ8IuidM4Dq1f0jJ1OsHd22uVpuhhQCjSLwAppEo2rtw9913S2pqqkyePEmysrKkX79+gg3Xm2++KSNGjFAA8q9/vSNJiUkycNBAjSFDe+S95ZZbNGYToHzUqFF6Hg3khvY1tXUguOnuTYs0qUFSqpTu265Sjw6Dr5MAb9tqWiS+f21BSG5rMztNbiyzPngn9N6/FufYDPQe0VYKjSoGWwuonrlWYnSMXQaYoEFm1rlt3T4dZEM7zCyaMO6oSSwhLWHWnpBcX9U03S9qLdP/ulQDveV2rhy+2pYhyiyExKHn8Nay1ETybWrC3TOrhxjwDxkgQTh7PnCAG9vXLAMe7CxYM1f8HNhVGgwAh/Eo6p0PX1ou/U3UYK8xaZIZLKmXyK/YLZww0TCjEYAJdQ5giWiyqGEAIbbe4k37pVWXVGnfM1NtF7wzf+pGAoEq54ABXaFE3UhaGMSJFmxtbcgXKY10bHqwQwkO5Fz0EKqW9j0z5PNpG8yM40uVIDDYZbRJUQBR26hPsHPh/0MyFImOGRuaxSZa8D4jOQFIEI0YVQk2GqZK6fWdNrLKREYODTLnrdPv2fOmn3r8paq/aAtJDhKQnZsDM3703qjG/NNOrSnWK0SDJehWnz599APHrAvpwoIFCyJWwUcV2rfPn4+1jVG4VVGEqwhJiSV7DAh48cUX1e4DVcu4ceNUKjJp0iSNmku0UvpIdN+LLhomBQVL5dFHH7XVqGSGSMDYn8RKycnJqoKaPHmySnVoc/DgwZUkO9Rp78eqjqgftQph2qGePXsqMAGsMIBQjx89//zzGq3YL817za9N1M7ReOCtwx5H64/N1zSxobBB6Y0TFYTEGTVMWkojOXSkXOavLVQQkp+bYew8ltli1dpj+4N6KZRQV5modWaiYNTI+cNUEvLp3x+VAeP/YKSxyQZwBEBIfMNkyel+icx56afS64qHTVpgshlaX3XPAaYAwbvuuksj34arJ9q7kJOdI8tXLJfXX39dq0BS179/fwUhAJ1dRhLJMw/17tNb9/xcfvnleoz6ETUfEkEADyrTzz6LTdpUr2GS5F96h+zZslT2Fa7Q+uLqNVBwlz/iR1JSZGwIV81WgIc0Cf6G47sWPgM/pyUJaZ7eQjqe000Wzf9YDpeenAmfgX5Wq8raxuDz/DEddNBa6Jlxlx89LmnGLgQ1yNTnF0tG2yY6+HsbQXVDWHVmv1ZNQjoDOQRIYADCKJQBw1SgqgVNDPlB3QB16pslDG6bzHmaMUK10XIZOJHOYMvxhZE+YFDas8IGI9kAlcZpjUJqNIamx07I3grpA4aQ2H9g4EhUYK/twmajAmIDhFx0bb7sKy7V81Mq9FxA3QRvkPZg6MpgCFEvUX4xxMT4c51RcyFpGXRlJ9lv6kV9AAEsMOL0IyQp2IVgqDvku+dIl4HZYu1tIqVRl+W9X71IbwYa25WNRkqDCg2yaoqtK/cEJUBtjC0QKo5oIARDXv4nCLCEBAbJxNKZmwOgzqifeAaaZSWpRI32AXwlJi8U7tnTxDA/qS2TFWR8aPhDPe17ZUi/Ue3lrT8sMM9WUtg0JD/VJQbM3/3ud1qcD+NNN90k48ePVxDiHWy99QOUEfVDSB78CKmTVQv4pVPHL3/5S78kVaUQ4pwVNwwCo0dfruoHJBMYxP74xz8WgANghA8yH/J58+ZpXahIvGoh3wZCLqKKgTp37qy2K/Rt4MCBleoh9HqoOokyDJgY72JMSCRi1FMQdhkMHH4E6ANgRKNwbUbjgV+90fpjy0xfvFZmLAtIYcvNNwbq1LK5Sq4S4uvKg1cN0WsZBqDwXbDvmF6s4g/88QMhANHCsgPmvTITvQtvkIJ3f2/yBYaqcnM97lgAhHQzdiHbV8wyA+k6TS8vC3x/qtiNYHbskKwNUPCiOUCSwRaOIr0L1Acg99oTkd/aXWVkZMjq1auDVZPG8wERKZlnERWcJaQyNt1eC7dHYtT3u0/I8SOlsuiNk0AdyVFKizzl78xnvi8tuvCf8g350oxJ4fkerp3TvV5tENLYrJDp3nuALF+6QIp3FJ5uP2q8PH8+gyWzdyQE3g/1YWO0im0EM10G3GRjf3HkUEDMTkeaZiaqSHyJSY80WNnw7qgdWOnx8eurwt4H7QAEWA0BMWAhYodSzUCGyoeBD6IuAJC5BVn+SXjeYhMCsTx1xZxCHQxRMXntOzSD+cFYEgkLK3AAJZGI8gyixZtK1K4EQAZRHtAB7TAqGghQA2+bZSUGQQgDdhPDQ2wpSPcjQFSxkUJlVqxg8uYJl4YKB+kCRrHksQRgAgghoUFS4SWA03ED7CyhkvKqcwCQABPA4fJPttpsp+wBrqyY4qMJj5EUYRQMcc5/kdcnU+Ya0Brp2TulYs8FeEj/LJBBJQNwRcITKS1UXeipskqHiHk7duwYXOKL3YUxTQ3WYZfvEoocyYX5PioAmDNnTjCPPThkJiXt2rWzp9Xaox555pln1GiTVSqojiwxiAOeJr40UUGABSH5+fkKXlBbxGoPAZBBwoBxKoROHoPYWIg+AbiuvPJKtdWwAGjVqlUKoGKpo7p5wvHAr76o/Tmnwubj8BHZub/yhLKnUb1AGKEiFTlhpIxxBoAATpZtDkh5/dqMdu32228PmyWn+6XmPYqTA8XrpGjNp5JZYSNyeF+ReX8D3z1UMCum/9EsIGhkvld1VcUQtsIYEljZFBcXF8w5dOhQtfdh1VEkYvVWuHcBEMHmXUGGjYiVqvEeeZeak1ZWFpAgY6QM3XnnnQbsnfyGReqLTatVO84Y8/5al+DOnnCrkYCftDMpK9klDVMy1HAVFUtS81Zy7Ghg8gR/w/Hd1l3T+1NlYTG00CgxWXr3vUBXx+w1BqoJjRJ1i6HoV5alx7BW+uH+fNpGM6uvo2oFDCshO1MGjDB4YCDKyhkII0OkJxh27ios0XKoJCBmu8yiGXTIB1DgAQs30Gqhip9CMztnsD5mBjNrD7F1dUAcvd2og1ixw4DIgIq6glk2D3YkQi2B9IP7YOBDokJ/isxgDIDhnFUVgJQcoyri2C7fjVSvtRsBuDBgtzdqCKQUDOgMeLTRxqw6QSqCfQeAZbsxQrXUxKiaGKBREXkpt0tzVcNQJzzINsa6DLRQpDRbB6tFqNdra4JEZdAVeSpBQvrCf8Vmgca2NXu1j/AW1Vpqy8TgyibqbWQkGrlGtdTGSDm8hIQDMGr7inEy9hqo1LDTQGplN/6Dzct3KwChjkjPHukJxjAZQArxTHEO8d8AdDKNZA7esmqKZ4bnK1KaFq7mz2233SaXXHKJzq7syhT78Vu/3kjBzCwOvyMAkMsuu0yfyeLiYrWPWLNmtUoiGMRJR6KANAV6++231VCTpaikobKovJKllgIeQI/dKEdfkMbwMebjfM011yhAYPaPpIGBIjc3Vw31WNJL/+zAT/mxY8dqO7H6SmHQycjIVAkGUhe2p59+WgGFVbNQL23afrK3S4RJK9xWaAarAbo6L1bgQ7lo5NdmLDyIVm9V0ztV2Ij898Tp8qPn3pK35wfE+j3aZEn9enXkoauHymW9O2m15+Sk63n7FgF1nW3r4u4d9Dp52SgXibavmKHJrPKIq1tf2pw3Thg8yw/v1/3R0r1SXmq+HWZ5HHYhzOKLjFoBApwkpuZIfGIz8x2srccNkiu/35ox5GfdunUqlUAywbZ9+3a1lfKTgHmLIk2M9C4ANHiW2rdvr+8SUilb5+LFRhKfnqHSDmyKSLP0wQcf6Hf9hz/8oUoVExISdFl4JAmjLdtjzM8ksVm2MVD9X4lv1FQSDdDAqBcqXDpd94f3GvW2MepNbdNLdq4NqHci8V0LnYGfyE9CmAZTm2eY/762ZLTI1s1mm/rOJLX+tef/zj1ggYH5fGMjYYnBo2DWFik2M+nNK3arqJs0Bvw183doNgwbKYc9BJult55aoFIVlqpaYoCYb9QVVq1ir/vtVxr7gWZmABx+w7majNrASkI2LtupgAn1BIT4f4lZ/hoLzZ+yQdUQI2/todnnT1mvs3QLSrAhgJhho86wS4v1YpgfJDIsE8VQlsGX85kVvlC4ZyREHQ3AYJkz59i82Nm7t8pQDJVujHzPNUtOIYAMS4WR4ECR0jSD+aEMVLHTYwZzBnLowmsC/OMYvy9IlAAm2HTAW8pvX7svCHzI562Lc0spBrAAMi0hBULK4UehdUR69ih/0X8GbAg4Pm9kQFrw5v/OV7DBf4TdCsCO1UZLPtqk9i0AkXBp1FNdQrSLDwk2iNn1c889p8eoFrC9uOGGG3TjPt944/XgUnhsE37xi1+oekQLmB+WlUKAEGZ/l1xyqfq14Jo1YuV/MK+YPPTQQ1wO0rXXXqszPpb6DhkyRK/zgccoj5kg0gpW5NAuxDngxK6e4drJZyTwrHAtErGyhb5g6GoJqQr10If3339fL1v+2DzY0mCMCs2da1YZmHsFtNUE2Xvwa5P7jcYD2wdbjz2PZR/KtQb16urS23JjS7a7JCDVXLxhh4zq01k6Zafpst0WTZODVderEyecNzFLdiFbH/5E2CzZ5b72PHR/7MghYWVMx8HXS2anQeY7c0zmvnxvMNvif/5Gel31iAy9faJeW/HBs7o8l5Mm2fnS3Sw7tdTvP5+UsgPFMuvPt9hLMe1ZgRQrRXoXWE4OeManDoTKBVUbhNqR5936wbFG2KQhZcPnzrBhFweXqeMXJ5Z+Nc3mG1NLjXqpCypa/bEseed/zD4gWeo68i69XlZijPUNr6FofNdMNfxTyyBr+5zUcNVfXXUTJkwQUCI649AXN1IvkGhgQ2GXlkbKa9MYHOonBF6mcEs3bV6/PZKX42aZq1edYPMx62YGHAuosWXsnoHYb9kwxp7cJ1KNqhI6X1as+Kl3qAsjUdqsCqnqwkh7qDNUnxwprSpt+OVFwoQKxY/vfvm5pv0x/xdqt0gGqOHKV/c6g2K8ecb8HKqFSxszZkzQEBKnW/jYiJVYJsgMGwmHFRN7y6K/xjvnxo0bgwDEmw6QYRBmJQFLTr2E+grbDlQ4bLEQZVimyvtcVFR0ShF05cwYa1LqcEojX/MLZwsPWI6LFKN07zaff6SWJDTJFKQlX35xUj3rk/EruxTpXeAdwY+O33tAGiu9rCrG22H7DlHW733w5q3KMWqsOGN3c6QkIJH3lo3Md2/O0z/+VoCQ02eDq8FxwHHAccBxwHHAceCr5kC1bEK+6k669hwHHAccBxwHHAccB759HHAg5Nv3n7o7chxwHHAccBxwHPhGcMCBkG/E3+Q66TjgOOA44DjgOPDt44ADId++/9TdkeOA44DjgOOA48A3ggMOhHwj/ibXSccBxwHHAccBx4FvHwccCPn2/afujhwHHAccBxwHHAe+ERyoNgjBGVb9Bg2Nn42AC91/593+6U9/kpdffkVeCHGvG2e8KeIlNBzh8wOPm36E63H8RNQ0USft+hHXcUteHbLB5ULLcn82Wm9oWizn4eqlLDyqKnGP+DSx8WiqWv6blJ971Hv1+b9P57/24wFROXkH2GL1FuqtB6+mubm56t3Uez2WY8riC4SQ5qHEd4J6bayM0PRI55QL5x0SvyVed9eR6vm2pp0dPDBB1RqmhP0LA2n+39Owhc5gQqR3IZZme/ToIYMGDYolDRnhNgAAHBJJREFUa9Q8Glm4cUbYfMSWqRPfMEx6ZL6HKVSty9Ua8ZJTmsp55w9Rr6m0emDfHilYNNc4YrERP6vVl2oXqlevnglgNVejf9pKCOqWURGXBHfjBHgjCqul/EHZ6vGTcwKv4WETZ1bNjHfN80zMGdxnQ4SoJ9y8jfY64vvdgtFkSSfE+6wKb6KchyPAQL/R7TVmDXnWLSwSG32WAYnw7cR14aONB9d5764L6yTM2wbuyAmih1MyPCQScM66ZicQXprxAAvh9XS98Wy6cs42IRYM7fkRfCqYvUXd0+O5k/7gzG32P1YFA/nBV/iHszI8sa79fIdGzfWrz3sN76vnnB/wQkpf8WjKfeJ11Ut4N+W+cItu4+l408MdpxmPrMQLwrPo4g83abZRt/c6JTsu+W3QvFMSKy50Nv1sZ/obSlP/skRj6Njrfm3Cs3MvzDWu8pvZbDLl+SXqfCzSf41juOHjuwbLcIDHVyISQ00zG5nIzVn6jC6duUU91WqC+XnrrbdkypQpBoj/VXgfYiXcj+O5tGXLbPUcSjm8NOL5lCinBGfD9TqEp86HH35YXVnjuRPQgRdIHC1ZohzloZtvvtl8UAcH6yWy7eOPPy4/+MEPxIa9t+V4HnDDDtl269QJfJ6IzWE9Sl566aUaXdS6TceDpO2frau6e5y8wbtbb7016FCKmDUPPPDAKVU+8sgj6kI7JSVFbrzxxmA6njHhU6Q+cQ/h0gsKCtRDbLg2Ce4WjgdMwvyAIJ3DiSPO38LR+KE9pW/HnFOS7/7Lu7K/NBDL5I+3jlYPqet27JFfvzZD8+IF9ckbR55SbsL0+fLZ6i1yvam3n6n3tU8LZMrCNafki3Sh5bnDpdOQm0yWWuY7UybzJt4nB3dv1iJJaa2l95WPqEt3/LIum/oH2bbsQ02rE58g7fpfLVldh+n59Cev0P2Z/In2LsTaNv8t4HrmzJmxFvHN1+fqxyQlM+At/MTxo1JY8L6s+nBCMG/XkXdKevtAiIVDe7bK3In3BD3ORuJ7sIIaPKgWCDl65LAs+Gym7Dfgo57xttij90Bpl5ev0XRrsG9VqgoXzt6XDA+hM19dYWKrHNHYIAx+xIfBUydxWnA5/skbq3XgPv/yjhqmfcWnhQZY1RL229bsMYGR6kj/UR3Mh79FpUGLdOv+/IQnOFqkDnc8L1OSzMA61QxG2Z2aaVyVIhMEDgBEjBDAwvS/FRi3ucdl8FWdpEPvTAU/keokjVgqxDT58MW10uPiNnrO4A2gAlDg/v3oYRMSu0MT6WZirxA3B3fp015YqlV37p+lwGj2a4Hge3gHRVqDe3oGP8LHDzDRaTmf8cpyLdPVuF4niBwDfUsT/4Vou5vNwB/N8yxu6omge3BfmYm909AEncuTnE6pYqMMUzn/i43Vo43F+IO32R7DWgfddtti9j45J4bOBVd3jhiU0JZbYwArrvUtdTbu75sYEID7dkvh2mxt4upkd2qqz9ee7Qc1AN1xw1co0n9t53MAPuuJFgAN4Wl3wNg8BZgM2AbnVCKueV0+V0qMcHLdtddJVoss4wr9MWGAIw6MlVoAptgseY+5du+992rZ3/72t+qSHffTeHWERo4cKYMHD9Zw5a+99prGzcjLy9M06qG/999/v57zYwN02fg1RDTF62urVq2CLqvxHEn8GUKb4wobwFA5Hk2wuiof0C71mW7J8OHDZeLEiVqHvWfAlTcSKt5h58+fbyL8jlZpjfU0S2TYTZs2RWyfyLsrVgTirwDU0tLSFNxRiLg9eIuF/NqMxAOAC/eAN9n77rtPQemsWbO0Lu+3US+E+SkpOyp7Sk56vS03IA9qlWZiZhn+Q7lpJyMnE9RuY/E+aWzctKck1Jejx47L9r0Hgy7eTz49WjTmH4BEpyHf1zgnmxe+Y4Kx/Uq6jb5XZj13s9bR3UTQPXJwj8yf9KD0GPOAnHPxbVK8Zo4OpOdedrcOwGX7i6Vh41MnEjF3ogoZI70LVaimxrLiRXbtJxOlpHi9tO4zRlr1Gi1bl0yV0j2FBnz0UwCy6J+/NvjtC+lmXNx3uGC8LDdALhrfa6yDnoqqBUKOHCkzAawC6LjMDHB79+ysFEPGU/+/7dBKGejA+kVFOgNHAkD8mOy8plKyp0x2bS0xg3NT7SNB4wAXXGODiHzLoM0M3ktc93OR7s0TesxgvclEr6Vco4qAZQTOA4TgUpzBpnT/ES1GsDgC5EUjBiYkBp++uUbKzSCXaAK38dFMz03RAHw7TZRaS0QDBoQQPXjLvt1BKQsu4gnK5nXNDi+gNQt2aN9Qu7ARAPCEcTnP8R7TbyQYllcJJhCcBSEEp+thpChFJqjd4o82aV387N8ZiD1hjw+XlOus3oIQ6gUsFszaqpKWYMGKg34GECY1ayCzJ688xQ09YIq+hPLNe18AHAY/KykKrd97DhizUZLhaVqrFMOPgETC5gvXZttu6UY6VBTkjTfKbSz/Nc9IaEgAng8AFfdz6S2BOEG2H6ezz++aLzt37dQYLNRDJN1YiJkfM37iyzAYQ95AcoAQAne98sormkbALhu0Sy+YHz+36wTB4z8iXgxEXBgbG6Zr164aWI7YGUT4hZ566ind25+f/OQn0r17d43J8eqrr9rLUfe0C4gjVHrv3r2DIMQWLCwsPKW/3C8ghPgzxJEh6B58icZDXNvbe+cYAGbPac+CEL82CeuOhMiPB+SHrAqLGCXeejUxys/0RWt8JRY922ZpSUBKUoN4yU5NkS279ivoeHTyhzK4S2u5ZlA3Wb6lWP743mdRWome3KIiai4xTeonNjWS6Qa6EYQNl+LxCU3MzP4JE+KiROqbIGxISzLyBpiBdpqsNmUO7d4qbfqOk9bnjY3e2GnmiPYu8Fw8+OCDBmyma2y1xUsWq0SQ55yQCQ8//HPJyckx0b6PadgDojhbQjVz/fXX63PF8/nss89Gfb4oW/De720Vsnb2SwpCMvMGydqPX1IJ0dFDe2XnOhPzqNsIzZfevq+CkEh8J+LumaBqgRDbkZzW7SUpubFktsiR1SuW2Mtfuz0BzCBmpVBDE/TsoAEhzPgRmyORQKzuR1z3DiLkYebPxqx4wdT1qrLxK+u9hrqkZHeZggAC46HGsbYam1fsklb5zTVgHDFK0g1Y+nzqBm9x3+OGiYHAbSUmimu7HukGiBxX6Y0N6EahxmkJQlC+lgZsoTqxEXJ9K6y4SHkGPaQ8SBfgT7oZhFG/AJA2GAlBnpEMxBsQlNmmiQI61FaW6hq+Aii80W5tGioHIu/aSMKouix1MwHzNplgfkh2/AiQRb1IILyU3Kyh5J7TXFCVeAMWevNwTKTcLSsD0YxD0yKd8wygniNSrqVIbdZvVFeB5mW39TRAzQwwS0yAqHnbFLTF8l8Puy5fm+EZmWeC5hEtGcDnBVS2H6e7J0gWqpHHHnssOHPm4xiNcnNzNYsNSheav1FCI5m/MgBOQtM4B9g9+eSTwaRt27bJE088oWLoAQMGaCTbadOm6eBuJTxLly5VgHLPPffIjBkzNEge8Ta81LhxY7VrQU1SFQLgMGAjDRo7dpzW4ZUeEF2XYHoQ/LnjjjtUZVNaWqqgBRBiVUwfffRRVZoOm9evzVh4ELbCGBIGdzHRryui5m7bc0AmfRyQmObnpmvpKZ+vlivOz5de7bIUhMRQZbWyIMFAjXDi2BENwnagaK0kp7eTBilp5v2vp3UeMLN8IuieKC/TyLkNUzL1+sFdm6vVZmghwCgSL4BpJIr2Ltx9992SmpoqkydPkqysLOnXr59gw/Xmm2/KiBEjFID861/vSFJikgwcNFBjyNAeeW+55RaN2QQoHzVqlJ5HA7mhfU1tHZi07N60SJMaJKVK6b7tKvXoMPg6CfC2raZF4vvXEoQAPhKTUjSa5X4zu/46EoaevUe0lUKjisHWAqpnrpUYHWOXASZokJEWbFu3TwfZ0P4zoyX8O2oSS0hLmNEnJNdXNU33i1rL9L8u1UBvuZ1TbbZKe6LMQkgceg5vLUtnbZGmJtw9s3qIAf+QARLZRjLCBw5wY/uKpMZKTjRzxc+BXaXBAHAYj+aZqLYfvrRc+puowV5j0iQzQFMv0WaxlThhomFGIwAT6hzAEqoR1DCAEFtv8ab90qpLqrTvmamDs1fqRN1ImVDlHDCgK5SoG0kLgzjRgq2tDfU3zUzUqMRNDG/8CJsegBCDsiUzlkmv77SRVSZKcaQgc7QHD6LZgth6vXvACyDL1h+pTYxRGWAz2qQogKhtABO2NTwzSKMi/dfHjN3OYhOheN+OQxr5lwjIHXplypIZNfNR9d6TPSYaLEG3+vTpox84Zl1IFxYsWGCz+O75qEL79vnPjmobo3CrovCtwFxEUmLJHgMCXnzxRbX7QNUybtw4lYpMmjRJvzNEK6WPRPe96KJhUlCwVB599FFbjUpmiASM/UmslJycrCqoyZMnq1SHNgcPHlxJskOd9n6s6oj6UasQph3q2bOnAhPACgMI9fjR888/r9GK/dK81/zaRO0cjQfeOuxxtP7YfE0TGwoblN44UUFInFHDpKU0kkNHymX+2kIFIfm5GcbOY5ktVq09tj+ol0IJdZWJWmeAt1Ej5w9TScinf39UBoz/g5HGJhvAEQAh8Q2TJaf7JTLnpZ9KryseNmmByWZofdU9B5gCBO+66y6NfBuunmjvQk52jixfsVxef/11rQJJXf/+/RWEAHR2GUkkzzzUu09v3fNz+eWX6zHqR9R8SARzDfhHZfrZZ7FJm+o1TJL8S++QPVuWyr7CFVpfXL0GCu7yR/xISoqMDeGq2QrwkCbB33B818Jn4Oe0JCFzZk/XD26Xbn2kR5+B8sGUN85AF6tfZW1j8Hn+mA46aC30zLiRGKQZuxBE41OfXywZbZvo4O9tCdUNodyZiVo1CekM5BAggUEJo1BUIqYCVS1oYsiPVTd0MkaFDDSbCnaa9pOC0XLb98xQ6Qy2HF8Y6QMGpT0rbDCSDVBpnHbqoEw02L0V0geMcLH/OGiADFGBGegsbTYqIDYG4Iuuzddw8ZxHItRN8AZpD4auDKwQ9RLlF+PPZbO3yjqj5kLSMujKTrLfhJpHtQQBLDCo9CMkKdiFYKiLAWqXgdkKDLobKch2YzCaYupLSQt8BDESpk5rnGp5761XAZZRBfF/NMtKUukWkhzAV4kBOZZaGTsN1BxelZBNi7SHD0ht5k9ZH8wWS5tbjcTFSp3aGDVQCyP9AYRE+q+5T54NCICG1Ke1AUBLZ27m8TojxID5u9/9Tuvmw3jTTTfJ+PHjFYR4B1tv4wBlRP0Qkgc/QgJk1QJ+6dTxy1/+0i9JVSmEOGfFDYPA6NGXq/oByQQGsT/+8Y8F4AAY4YPMh3zevHlaFyoSr1rIt4GQi6hioM6dO6vtCn0bOHBgpXoIvR6qTqIMAybGuxgTEokY9RSEXQYDhx8B+gAY0Shcm9F44FdvtP7YMtMXr5UZywJS2HLzjYE6tWyu3/mE+Lry4FVD9FqGASh8F0IjYWtijD/wxw+EAEQLyw6Yd9lM9C68QQre/b3JFxiqys31uGMBENLN2IVsXzHLDKTrNL28LPD9ibH5U7Jhh8QEIpSQZLCFo0jvAvUByL32ROS3dlcZGRmyevXqYNWk8XxARErmWUQFZwmpjE2318LtkRj1/e4TcvxIqSx64yRQR3KU0iJP+Tvzme9Liy78p3xgvjRjUni+h2vndK+fFgihcf0gFW2TzKxcia/fQI5W2IqcbsdOtzx/PoMls3ckBN4VGIeN0Sq2Ecw6GXCTjf3FkUMnZ9fMyFk9ssSkM3CEI2szgNqBlR4fv74qXFZtByDwwYuB2QODJIaaUKoZPFH52MGWugBAvA/LPykMWyc2IRAGlyvmFOoAjIrJT2yPoS4SFlbgRAMhlAfAFW8qMUasB3Q1De1QHtAB7TAqGmifAR/wtllWADBwjcGzieEhdg2k+xEgqtjUnVmxgok8mW2Nas9svLQQQOzj11YqwOAcMIBkC6NYykPcL1IbDHTtOXzJ65Mpcw2AhLiXHGMMvOqz7Xru/QFAAhIAh8s/2epN0mNWuPCMe+1IorUJWDtuwKQl1GBWhRTpvzbNVCLAMmogPtRI0c40Iebt2LFjcIkvdhdGrhNsluWHEKHIkVzQXwDAnDlzgnnswaHSQ9KuXTt7Wq096pFnnnlGjTZZpYLqyBKDOOBp4ksTFQRYEJKfn6/gBbVFrPYQABkkDBinQujkMYiNhegTgOvKK69UWw0LgFatWqUAKpY6qpsnHA/86ovan3MqbD4OH5Gd+0+qVqmrp1G9QBihIhU58cWXZl9LwcmyzQEpr2ao4s/tt98etkRO90vN9y9ODhSvk6I1n0pmhY3I4X1F5l0KPIcsQV0x/Y9GBd3IvON1VcUQtsIYEljZFBcXF8w5dOhQtfdh1VEkYvVWuHeBbwebdwUZNiJWqsZ75F1qTlpZWUCCjJEydOeddwYNtyP1w5tWq3acMeb9tS7BnT3hViMBP2lnUlaySxqmZKjhKiqWpOatjP1bYMIGf8Px3Vt/TR6fKguLofbUtExpmmp0c8ZACJuQ1u06qcFN+VF/XX4MVdZ4lh7DWunA+Pm0jWZWX0fVChhWQhibQoARBiwMRFk5A2HYiPSEZZy7Cku0nF2twQybGS2DEPkACjxg4QZarbDip9C0yWB9zAws1h5i6+qAOHq7UQexYocBkZk36gpm9jzYkQi1BNIP7gPQxSyb/hQZdQkAhnP8pABScoyqiGPvYBqubjuDB7gweLY3KgEkGAyugCXaaGMkC0hFsO9gkN9ujFAtoU4BFKAi8lJul+aqhqFOeJBtjHWLNgTKvfvsIl2SizTos7fXarEpExYHAQgXuhvDWur12ppgaEwZu8EPbDcsAKFcppF0wR8/8NXISFFyjWoJlYsfYcyKVMMLYqO1uW3NXuUL/yfqvNSWicHVVJH+ayQ5AGDLHwyisY+xAAR7GlRzzEDrJ1QcG96fDt12221yySWX6OzKrkyxH7/1640UzABC/I4AQC677DJ9JouLi9U+Ys2a1SqJYBAnHYkC0hTo7bffVkNNlqKShsqi8kqWWgp4AD12oxx9QRrDx5iP8zXXXKMAgdk/kgYGitzcXDXUY0kv/bMDP+XHjh2r7cTqK4VBJyMjUyUYSF3Ynn76aQUUVs1CvbRp+8neLhEmrXBboRmsBujqvFiBD+WikV+bsfAgWr1VTe9UYSPy3xOny4+ee0venh8Q6/dokyX169WRh64eKpf17qTVnpOTruftWwTUdbati7t30OvkZaNcJNq+YoYms8ojrm59aXPeOGHwLD+8X/dHS/dKean5dtSqrXYhzOKLjFoBApwkpuZIfGIz897X1uMGyf7vtxao+Fm3bp1KJZBMsG3fvl1tpfwkYN5ySBMjvQsADZ6l9u3b67uEVMrWuXixkcSnZ6i0A5si0ix98MEH+t364Q9/qFLFhIQEXRYeScJoy/YY8zNJbJZtDFT/V+IbNZVEAzQw6oUKl07X/eG9Rr1tjHpT2/SSnWsD6p1IfNdCZ+An8pMQpsGEhETpeM5JEVHJ/r3y+dxZOjiFKfKVXwYsMPB4DRUZPAqMPUaxmUlvXrFb+o1qr/1iwF8zP2B8hBEn5bCHYLP01lMLVKrCUlVLDEzzjbqCFSbRaKWxWWhmBqPhN5yrWVn+aSUhG40xJpIE1BMQovglZvlrLDR/ygYZaJbQjry1h2ZHbYBkwIIS7AogZuOoM+zSYr0Y5geJzMLpG9VQloGQ85kVvlC4ZyREHQ3AYIDmHJsXr+rDVhuKodKNgee5ZnkvBJBhqTASnFiJMlDFzreYXxpLZrHpsKt3vAX98tt0wBRSHatOs9dD96F1oIrCGJr/kz5vX7svCLYi/dcpBrAAbC0hefKCqfOMdC6leUNNxhCZjeW81uDalqvKHtEuPiTYIGbXzz33nB6jWsD24oYbbtCN+3zjjdeDS+GxTfjFL36h6hEtYH5YVgoBQpj9XXLJperXgmvWiBWemFdMHnroIS4H6dprr9UZH0t9hwwZotf5wGOUh2oIaQUrcmgX4hxwYlfPcO3kMxJ4VrgWiVjZQl8wdLWEVIV66MP777+vly1/bB5saTBGhebONasMzL0C2mqC7D34tcn9RuOB7YOtx57Hsg/lWoN6dXXpbbmxJdtdEpBqLt6wQ0b16SydstN02W6LpsnBquvViRPOm5glu5CtD38ibJbscl97Hro/duSQsDKm4+DrJbPTIPOdOSZzX743mG3xP38jva56RIbePlGvrfjgWV2ey0mT7HzpbpadWur3n09K2YFimfXnW+ylmPasQIqVIr0LLCcHPONTB0LlgqoNQu3I82794FgjbNKQsuFzZ9iwi4PL1PGLE0u/mmZjp1RLjXqpCypa/bEseed/zD4gWeo68i69XlZiDOcNr6FofNdMNfxTyyBr+5xUqWpExHhMPWZEl8eOnRT1VKmSGso8YcIEASWiMw59cSM1gUQDGwq/wSlcOWb9zEKh0GWU4cp4ryN5OW6WuVp1gjeNGTDShVhAjbccx0hp/JYNYwjKfSLVqCrpjNvMvv3UO9SFkShtVoXoCwM7dZ6OPrkqbf678iLVAhBW5b9W/phnBFWfNYSNpf9jxowJGkLidAsfG7ESywSZYSPhsGJib1n013jn3LhxYxCAeNMBMgzCrCRgyamX+E5g24EKhy0WogzLVHmfi4qKTimCrpwZY01KHU5p5Gt+4WzhActxkWKU7t3m84/UkoQmmYK05MsvAupZn0xf6aVI7wLvCH50/N4D0ljpZVUx3k7bd4iyfu+DN29VjlFjxRm7myMlAYm8t2xkvntznv5xtUHI6TftanAccBxwHHAccBxwHDibOVAtm5CzmWHu3h0HHAccBxwHHAccB2qGAw6E1AwfXS2OA44DjgOOA44DjgNV5IADIVVkmMvuOOA44DjgOOA44DhQMxz4ykBI1ijjstZsjhwHHAccBxwHHAccBxwH4MBXAkIs+Ch88wrHdccBxwHHAccBxwHHAccB5cBXAkJoCQBiwYjjveOA44DjgOOA44DjgOPAVwJCHABxD5rjgOOA44DjgOOA40AoB04bhHTs3E2GX3aVpGUEPHOGNsC5lYA4dYwfd9w1xwHHAccBxwHHgbOTA6cFQhKTkqVlzkk35pFY6KQhkbjj0hwHHAccBxwHHAfOPg6cFgg5t0d/WbX8ZGTLcOxzACQcZ9x1xwHHAccBxwHHgbOXA9UGITmtAmG6C7dsiMo9p46JyiKXwXHAccBxwHHAceCs40C1QEh8/QaCLcjSRYHwv7FwzUlDYuGSy+M44DjgOOA44Dhw9nCgWiAkzwCQ0kMHJa5OHWnSrLlyKym5sUbV9WOdAyB+XHHXHAccBxwHHAccB85uDtSpzu3XMqG26zdoKN17DQgWb9WmoxwrL5dNG1YHr9kDp46xnHB7xwHHAccBxwHHAccBy4FqgZBF8z+25aVWrVpy8cgrZcnCOVK8ozB4PfTASkPYO3IccBxwHHAccBxwHHAcqJY6pqpsswCkquVcfscBxwHHAccBxwHHgW8vB/4/eUIVWS/M3sIAAAAASUVORK5CYII=;" vertex="1" parent="WIyWlLk6GJQsqaUBKTNV-1">
          <mxGeometry x="830" y="554" width="545" height="86" as="geometry" />
        </mxCell>
        <mxCell id="OPoXYdPVsy5MxGp2nYEl-59" value="Suggestions? :&amp;nbsp;&lt;br&gt;&lt;p class=&quot;p1&quot;&gt;Add &lt;span class=&quot;s1&quot;&gt;RETRY x/3&lt;/span&gt; or timestamp to log entries to trace retry attempts (poster.py)&lt;/p&gt;&lt;p class=&quot;p1&quot;&gt;&lt;b&gt;Remove from failed.jsonl upon success:&amp;nbsp;&lt;/b&gt;&lt;span style=&quot;background-color: initial;&quot;&gt;Confirm that successful retry removes the entry from failed log (retry_runner.py)?&amp;nbsp;&lt;/span&gt;&lt;/p&gt;&lt;p class=&quot;p1&quot;&gt;&lt;span style=&quot;background-color: initial;&quot;&gt;&lt;br&gt;&lt;/span&gt;&lt;/p&gt;" style="text;strokeColor=none;fillColor=none;align=left;verticalAlign=middle;spacingLeft=4;spacingRight=4;overflow=hidden;points=[[0,0.5],[1,0.5]];portConstraint=eastwest;rotatable=0;whiteSpace=wrap;html=1;" vertex="1" parent="WIyWlLk6GJQsqaUBKTNV-1">
          <mxGeometry x="830" y="650" width="550" height="100" as="geometry" />
        </mxCell>
      </root>
    </mxGraphModel>
  </diagram>
</mxfile>
